<svg width="20" height="20" viewBox="0 0 20 20" fill="none" xmlns="http://www.w3.org/2000/svg">
<g clip-path="url(#clip0_3_294)">
<path d="M10 0C4.47711 0 0 4.47711 0 10C0 15.5229 4.47711 20 10 20C15.5229 20 20 15.5229 20 10C20 4.47711 15.5229 0 10 0Z" fill="#40B3E0"/>
<path d="M14.8658 5.75242L13.0797 14.7577C13.0797 14.7577 12.8299 15.3822 12.143 15.0824L8.02126 11.9224L6.52251 11.198L3.99954 10.3487C3.99954 10.3487 3.61236 10.2113 3.57486 9.91156C3.53743 9.61179 4.01204 9.44945 4.01204 9.44945L14.0414 5.51508C14.0414 5.51508 14.8658 5.15289 14.8658 5.75242Z" fill="white"/>
<path d="M7.70454 14.6565C7.70454 14.6565 7.58422 14.6453 7.4343 14.1706C7.28446 13.696 6.52258 11.198 6.52258 11.198L12.5802 7.35112C12.5802 7.35112 12.9299 7.13878 12.9174 7.35112C12.9174 7.35112 12.9798 7.38854 12.7925 7.56339C12.6052 7.73831 8.03383 11.8474 8.03383 11.8474" fill="#D2E5F1"/>
<path d="M9.60166 13.134L7.97134 14.6204C7.97134 14.6204 7.84392 14.7171 7.70447 14.6565L8.01666 11.8955" fill="#B5CFE4"/>
</g>
<defs>
<clipPath id="clip0_3_294">
<rect width="20" height="20" fill="white"/>
</clipPath>
</defs>
</svg>
