<svg width="20" height="20" viewBox="0 0 20 20" fill="none" xmlns="http://www.w3.org/2000/svg">
<path d="M10.625 0C5.4375 0 1.25 4.1875 1.25 9.375C1.25 11.5 1.9375 13.5 3.25 15.125L1.9375 19.125C1.875 19.375 1.9375 19.625 2.125 19.8125C2.1875 19.9375 2.375 20 2.5 20C2.5625 20 2.6875 20 2.75 19.9375L7.0625 18C8.1875 18.5 9.375 18.75 10.625 18.75C15.8125 18.75 20 14.5625 20 9.375C20 4.1875 15.8125 0 10.625 0Z" fill="#25D366"/>
<path d="M16.0625 12.8125C15.8125 13.5625 14.875 14.1875 14.0625 14.3125C13.875 14.375 13.6875 14.375 13.4375 14.375C12.9375 14.375 12.1875 14.25 10.875 13.6875C9.375 13.0625 7.875 11.75 6.6875 10.0625V10C6.3125 9.4375 5.625 8.375 5.625 7.25C5.625 5.875 6.3125 5.1875 6.5625 4.875C6.875 4.5625 7.3125 4.375 7.8125 4.375C7.9375 4.375 8 4.375 8.125 4.375C8.5625 4.375 8.875 4.5 9.1875 5.125L9.4375 5.625C9.625 6.125 9.875 6.6875 9.9375 6.75C10.125 7.125 10.125 7.4375 9.9375 7.75C9.875 7.9375 9.75 8.0625 9.625 8.1875C9.5625 8.3125 9.5 8.375 9.4375 8.375C9.375 8.4375 9.375 8.4375 9.3125 8.5C9.5 8.8125 9.875 9.375 10.375 9.8125C11.125 10.5 11.6875 10.6875 12 10.8125C12.125 10.6875 12.25 10.4375 12.4375 10.25L12.5 10.125C12.8125 9.6875 13.3125 9.5625 13.8125 9.75C14.0625 9.875 15.4375 10.5 15.4375 10.5L15.5625 10.5625C15.75 10.6875 16 10.75 16.125 11C16.375 11.5625 16.1875 12.375 16.0625 12.8125Z" fill="white"/>
</svg>
